<?xml version="1.0" encoding="UTF-8"?>
<svg version="1.1" viewBox="0 0 438.1 350.4" xml:space="preserve" xmlns="http://www.w3.org/2000/svg"><defs><linearGradient id="a" x2="1" gradientTransform="matrix(-199.8 267.9 278.9 207.9 612.2 256.9)" gradientUnits="userSpaceOnUse"><stop stop-color="#15e7e0" offset="0"/><stop stop-color="#15e7e0" offset=".015"/><stop stop-color="#27b2fd" offset="1"/></linearGradient></defs><g transform="matrix(1.333 0 0 -1.333 0 1024)"><g transform="translate(-347.7 252.6)"><path d="m347.7 390.7c0-57.88 29.99-108.8 75.27-138.1 16.78 16.78 33.55 33.55 50.32 50.33 12.9 12.9 25.8 25.8 38.69 38.7 29.67-29.67 59.34-59.35 89.02-89.02 45.28 29.27 75.27 80.19 75.27 138.1 0 49.87-22.27 94.57-57.39 124.7-16.2-16.2-32.4-32.4-48.6-48.6 22.85-17.53 37.6-45.11 37.6-76.11 0-14.04-3.023-27.37-8.452-39.38l-13.84 13.84c2.781 8.003 4.291 16.6 4.291 25.54 0 26.04-12.8 49.1-32.45 63.25l-18.17-18.17c15.23-9.239 25.42-25.98 25.42-45.08 0-11.47-3.671-22.08-9.901-30.74 16.4-16.4 32.21-32.21 48.63-48.63 18.48 21.26 29.67 49.01 29.67 79.37 0 28.88-10.13 55.41-27.04 76.23l12.78 12.78c20.13-24.12 32.25-55.16 32.25-89.01 0-41.8-18.48-79.3-47.69-104.8-24.52 24.52-49.05 49.05-73.57 73.57l6.702 6.704c6.278 6.279 10.16 14.95 10.16 24.52 0 19.14-15.54 34.68-34.68 34.68-19.14 0-34.68-15.54-34.68-34.68 0-9.574 3.886-18.24 10.16-24.52l6.699-6.707c-24.52-24.52-49.05-49.05-73.57-73.57-29.22 25.5-47.7 63-47.7 104.8 0 33.85 12.12 64.89 32.25 89.01l12.78-12.78c-16.9-20.82-27.04-47.35-27.04-76.23 0-30.35 11.19-58.11 29.67-79.37 16.24 16.25 32.4 32.39 48.64 48.63-6.228 8.652-9.902 19.26-9.902 30.73 0 19.1 10.19 35.84 25.42 45.08l-18.17 18.17c-19.65-14.14-32.45-37.21-32.45-63.25 0-9.032 1.543-17.7 4.373-25.77l-13.83-13.83c-5.487 12.07-8.547 25.48-8.547 39.6 0 31 14.75 58.58 37.6 76.11-16.2 16.2-32.4 32.4-48.6 48.6-35.12-30.14-57.39-74.84-57.39-124.7m157.6-6.705c-1.715 1.719-2.778 4.088-2.778 6.705 0 5.232 4.249 9.482 9.482 9.482 5.234 0 9.482-4.25 9.482-9.482 0-2.311-0.83-4.434-2.209-6.077-2.055-2.433-4.98-5.033-7.276-7.329z" fill="url(#a)"/></g></g></svg>
